<svg width="18" height="19" viewBox="0 0 18 19" fill="none" xmlns="http://www.w3.org/2000/svg">
<g id="token icons" clip-path="url(#clip0_216_1691)">
<path id="Vector" d="M9 18.5C13.9875 18.5 18 14.4875 18 9.5C18 4.51247 13.9875 0.5 9 0.5C4.01247 0.5 0 4.51247 0 9.5C0 14.4875 4.01247 18.5 9 18.5Z" fill="#2775CA"/>
<path id="Vector_2" d="M11.475 10.925C11.475 9.61248 10.6875 9.16248 9.11251 8.97501C7.98751 8.82498 7.76251 8.52501 7.76251 7.99995C7.76251 7.47489 8.13754 7.13748 8.88751 7.13748C9.56251 7.13748 9.93754 7.36248 10.125 7.92498C10.1625 8.03748 10.275 8.11245 10.3875 8.11245H10.9875C11.1375 8.11245 11.25 7.99995 11.25 7.85001V7.81248C11.1 6.98745 10.425 6.34998 9.56251 6.27501V5.37501C9.56251 5.22498 9.45001 5.11248 9.26254 5.07495H8.70004C8.55001 5.07495 8.43751 5.18745 8.39998 5.37501V6.23748C7.27498 6.38751 6.56254 7.13748 6.56254 8.07501C6.56254 9.31251 7.31251 9.79995 8.88751 9.98751C9.93754 10.175 10.275 10.4 10.275 11C10.275 11.6 9.74998 12.0125 9.03754 12.0125C8.06248 12.0125 7.72498 11.6 7.61248 11.0375C7.57504 10.8875 7.46254 10.8125 7.35004 10.8125H6.71248C6.56254 10.8125 6.45004 10.925 6.45004 11.075V11.1125C6.59998 12.05 7.20001 12.725 8.43751 12.9125V13.8125C8.43751 13.9625 8.55001 14.075 8.73748 14.1125H9.29998C9.45001 14.1125 9.56251 14 9.60004 13.8125V12.9125C10.725 12.725 11.475 11.9375 11.475 10.925Z" fill="#FAFAFA"/>
<path id="Vector_3" d="M7.0875 14.8624C4.1625 13.8125 2.66247 10.55 3.75003 7.66244C4.31253 6.08744 5.55003 4.88747 7.0875 4.32497C7.23753 4.25 7.3125 4.1375 7.3125 3.94994V3.42497C7.3125 3.27494 7.23753 3.16244 7.0875 3.125C7.04997 3.125 6.975 3.125 6.93747 3.16244C3.375 4.28744 1.42497 8.075 2.54997 11.6375C3.22497 13.7374 4.8375 15.35 6.93747 16.025C7.0875 16.0999 7.23753 16.025 7.27497 15.8749C7.3125 15.8375 7.3125 15.8 7.3125 15.725V15.1999C7.3125 15.0874 7.2 14.9375 7.0875 14.8624ZM11.0625 3.16244C10.9125 3.08747 10.7625 3.16244 10.725 3.31247C10.6875 3.35 10.6875 3.38744 10.6875 3.4625V3.98747C10.6875 4.1375 10.8 4.28744 10.9125 4.3625C13.8375 5.41244 15.3375 8.67494 14.25 11.5625C13.6875 13.1375 12.45 14.3375 10.9125 14.9C10.7625 14.9749 10.6875 15.0874 10.6875 15.275V15.8C10.6875 15.95 10.7625 16.0625 10.9125 16.0999C10.95 16.0999 11.025 16.0999 11.0625 16.0625C14.625 14.9375 16.575 11.1499 15.45 7.58747C14.775 5.44997 13.125 3.83744 11.0625 3.16244Z" fill="#FAFAFA"/>
</g>
<defs>
<clipPath id="clip0_216_1691">
<rect width="18" height="18" fill="white" transform="translate(0 0.5)"/>
</clipPath>
</defs>
</svg>
